<svg width="180" height="180" viewBox="0 0 180 180" fill="none" xmlns="http://www.w3.org/2000/svg">
<rect width="180" height="180" fill="#FFE49A"/>
<path d="M36.0057 64.831C28.0057 53.331 36.2453 31.963 57.5057 24.3311C77.0057 17.3311 79 39.8594 95.5057 47.331C115 56.1556 134.717 53.1556 143.506 72.331C149.006 84.331 157.506 124.331 132.506 146.831C107.506 169.331 52.5057 160.331 42.0057 146.831C24.1168 123.831 87.5057 108.331 87.0057 92.8311C86.5057 77.3311 44.0057 76.331 36.0057 64.831Z" stroke="black"/>
<path d="M33.0057 61.831C25.0057 50.331 33.2453 28.963 54.5057 21.3311C74.0057 14.3311 76 36.8594 92.5057 44.331C112 53.1556 131.717 50.1556 140.506 69.331C146.006 81.331 154.506 121.331 129.506 143.831C104.506 166.331 49.5057 157.331 39.0057 143.831C21.1168 120.831 84.5057 105.331 84.0057 89.8311C83.5057 74.3311 41.0057 73.331 33.0057 61.831Z" stroke="black"/>
</svg>
